<svg preserveAspectRatio="none" overflow="visible" style="display: block;" width="26" height="26" viewBox="0 0 26 26" fill="none" xmlns="http://www.w3.org/2000/svg">
<g id="&#195;&#173;cone">
<path id="Vector" d="M22.75 13C22.7419 14.4755 22.3571 15.9245 21.6322 17.2097C20.9074 18.495 19.8664 19.5738 18.6079 20.3441C17.3493 21.1144 15.915 21.5506 14.4407 21.6115C12.9664 21.6723 11.501 21.3557 10.1833 20.6917L4.33333 21.6667L5.41667 16.6833C4.92823 14.3848 5.37288 11.9864 6.65282 10.0157C7.93276 8.04497 9.94312 6.66344 12.2417 6.175C14.5402 5.68656 16.9386 6.13122 18.9093 7.41115C20.88 8.69109 22.2616 10.7015 22.75 13Z" stroke="#C23A26" stroke-width="2.16667" stroke-linecap="round" stroke-linejoin="round"/>
<path id="Vector_2" d="M13 8.66667V13" stroke="#C23A26" stroke-width="2.16667" stroke-linecap="round" stroke-linejoin="round"/>
<path id="Vector_3" d="M13 16.7917H13.01" stroke="#C23A26" stroke-width="2.16667" stroke-linecap="round" stroke-linejoin="round"/>
</g>
</svg>
